<?xml version="1.0" encoding="UTF-8" standalone="no"?>
<!-- Created with Inkscape (http://www.inkscape.org/) -->

<svg
   width="32.185581mm"
   height="22.665884mm"
   viewBox="0 0 32.185581 22.665884"
   version="1.1"
   id="svg5"
   xml:space="preserve"
   inkscape:version="1.2.2 (732a01da63, 2022-12-09)"
   sodipodi:docname="logo.svg"
   xmlns:inkscape="http://www.inkscape.org/namespaces/inkscape"
   xmlns:sodipodi="http://sodipodi.sourceforge.net/DTD/sodipodi-0.dtd"
   xmlns="http://www.w3.org/2000/svg"
   xmlns:svg="http://www.w3.org/2000/svg"><sodipodi:namedview
     id="namedview7"
     pagecolor="#ffffff"
     bordercolor="#000000"
     borderopacity="0.25"
     inkscape:showpageshadow="2"
     inkscape:pageopacity="0.0"
     inkscape:pagecheckerboard="0"
     inkscape:deskcolor="#d1d1d1"
     inkscape:document-units="mm"
     showgrid="false"
     inkscape:zoom="5.8867564"
     inkscape:cx="57.162209"
     inkscape:cy="34.399249"
     inkscape:window-width="1920"
     inkscape:window-height="1013"
     inkscape:window-x="-9"
     inkscape:window-y="-9"
     inkscape:window-maximized="1"
     inkscape:current-layer="text1008" /><defs
     id="defs2" /><g
     inkscape:label="Layer 1"
     inkscape:groupmode="layer"
     id="layer1"
     transform="translate(-48.88673,-42.541867)"><g
       aria-label="htl"
       id="text1008"
       style="font-style:oblique;font-weight:800;font-size:16.9333px;font-family:'Iosevka Aile';-inkscape-font-specification:'Iosevka Aile, Ultra-Bold Oblique';stroke:#ffffff;stroke-width:3.96499"><g
         id="g4856"
         transform="translate(-0.90849255,-1.3443826)"><path
           d="m 60.077118,60.766346 2.04893,-12.445976 h 2.252129 l -0.795865,4.876791 q 0.220132,-0.321733 0.524932,-0.592666 0.304799,-0.270932 0.643465,-0.440265 0.3556,-0.186267 0.728132,-0.254 0.372533,-0.08467 0.745065,-0.08467 0.457199,0 0.880532,0.152399 0.440266,0.1524 0.728132,0.474133 0.287866,0.321732 0.423332,0.745065 0.1524,0.423332 0.2032,0.880531 0.0508,0.440266 0.01693,0.914399 -0.03387,0.457199 -0.118533,0.931331 l -0.795865,4.842924 h -2.252129 l 0.846665,-5.147723 q 0.03387,-0.220133 0.0508,-0.440266 0.01693,-0.237066 -0.01693,-0.457199 -0.03387,-0.220133 -0.135467,-0.423333 -0.08467,-0.203199 -0.237066,-0.338666 -0.1524,-0.152399 -0.372532,-0.203199 -0.2032,-0.06773 -0.440266,-0.06773 -0.287866,0 -0.609599,0.101599 -0.304799,0.08467 -0.558799,0.287866 -0.237066,0.2032 -0.389466,0.491066 -0.1524,0.287866 -0.186266,0.592666 l -0.931332,5.604922 z"
           style="stroke:#000000;stroke-width:3.965;stroke-opacity:0"
           id="path1162" /><path
           d="m 72.353762,60.766346 q -0.389466,0 -0.761999,-0.03387 -0.372532,-0.0508 -0.711198,-0.186266 -0.338666,-0.135466 -0.626532,-0.355599 -0.287866,-0.220133 -0.440266,-0.541866 -0.1524,-0.321733 -0.186266,-0.694265 -0.03387,-0.372533 0.03387,-0.761999 l 0.728132,-4.368791 h -1.625601 l -0.01693,-1.862663 h 1.94733 l 0.592665,-3.64066 h 2.269062 l -0.592665,3.64066 h 2.065862 l 0.01693,1.862663 H 72.65856 l -0.778931,4.673591 q -0.01693,0.1016 0,0.186266 0.03387,0.08467 0.101599,0.135466 0.08467,0.0508 0.169333,0.06773 0.1016,0.01693 0.186267,0.01693 h 1.38853 v 1.862663 z"
           style="stroke:#000000;stroke-width:3.965;stroke-opacity:0"
           id="path1164" /><path
           d="m 74.749833,60.766346 2.04893,-12.445976 h 2.269062 l -2.04893,12.445976 z"
           style="stroke:#000000;stroke-width:3.965;stroke-opacity:0"
           id="path1166" /></g><rect
         style="fill:none;stroke:#000000;stroke-width:1.0559;stroke-dasharray:none;stroke-opacity:1"
         id="rect1221"
         width="28.433561"
         height="18.591043"
         x="52.110802"
         y="43.069817" /><path
         id="rect1221-1"
         style="fill-opacity:0.543403;stroke:none;stroke-width:1.056"
         d="m 48.88673,46.616707 h 3.193892 l 0.01328,15.056383 25.226393,-0.0174 v 3.55206 H 48.88673 Z"
         sodipodi:nodetypes="ccccccc" /></g></g></svg>
